#!OML:ASF I:\Actors\actors\Patient Classification 1\Patient 1\Session 1\Subject1.ASF
:FULLY-SPECIFIED
:DEGREES
787
root 0.825546 17.6496 9.31261 27.7189 2.44747 -9.0374
lowerback 6.91801 0.793984 5.72884
upperback -6.97763 2.02904 2.39598
thorax -11.3257 0.632279 -0.954255
lowerneck -15.0926 -3.99267 -1.58408
upperneck -4.09975 -5.22368 11.518
head 1.72665 -2.29057 3.79094
rclavicle 1.98785e-016 -9.74045e-015
rhumerus 52.4263 20.8138 -44.0818
rradius 60.3997
rwrist 40.3004
rhand -24.9668 -53.68
rfingers 7.12502
rthumb 1.54359 -83.6541
lclavicle 1.98785e-016 -9.74045e-015
lhumerus 50.7122 -22.3205 44.4752
lradius 61.3798
lwrist -24.4868
lhand -49.1636 -33.0332
lfingers 7.12502
lthumb -21.7862 -4.23934
rfemur -26.3505 36.48 10.435
rtibia -1.69662
rfoot -15.5793 -38.7825
rtoes 19.4409
lfemur -22.6362 -50.129 11.9765
ltibia -7.89501
lfoot -42.1574 53.2045
ltoes 36.1807
788
root 0.821461 17.6498 9.30148 27.8743 2.52351 -9.01459
lowerback 6.97404 0.792103 5.6591
upperback -7.11704 2.03294 2.4097
thorax -11.5211 0.633929 -0.901499
lowerneck -15.5665 -4.06772 -1.52945
upperneck -3.75613 -5.35684 11.7739
head 1.76949 -2.31586 3.50344
rclavicle -7.70291e-015 -1.82882e-014
rhumerus 53.4628 19.8298 -45.9198
rradius 57.7317
rwrist 41.3421
rhand -26.6658 -53.6201
rfingers 7.12502
rthumb -0.0973471 -83.5998
lclavicle -7.70291e-015 -1.82882e-014
lhumerus 52.2097 -21.5696 45.5958
lradius 58.7374
lwrist -24.8623
lhand -49.542 -34.3066
lfingers 7.12502
lthumb -22.1494 -5.55541
rfemur -26.4468 36.385 10.3616
rtibia -1.87437
rfoot -15.7635 -38.7168
rtoes 20.1267
lfemur -22.8649 -50.0274 12.2117
ltibia -8.00732
lfoot -42.568 52.8416
ltoes 36.858
789
root 0.817875 17.6495 9.28933 28.0576 2.65492 -8.96473
lowerback 6.95475 0.773387 5.59988
upperback -7.22937 2.00616 2.41334
thorax -11.6408 0.621942 -0.859192
lowerneck -15.7039 -4.09667 -1.47886
upperneck -3.7831 -5.40397 11.8188
head 1.78591 -2.33483 3.50443
rclavicle -1.09829e-014 3.65764e-014
rhumerus 54.6306 18.864 -47.8118
rradius 54.8579
rwrist 42.4669
rhand -28.1884 -53.5357
rfingers 7.12502
rthumb -1.56784 -83.5097
lclavicle -1.09829e-014 3.65764e-014
lhumerus 53.6341 -20.8261 46.731
lradius 56.1931
lwrist -25.188
lhand -49.7267 -34.7579
lfingers 7.12502
lthumb -22.3267 -6.02787
rfemur -26.5992 36.213 10.256
rtibia -1.99991
rfoot -15.9266 -38.6446
rtoes 20.7078
lfemur -23.2409 -49.9472 12.5495
ltibia -8.09003
lfoot -42.7931 52.5943
ltoes 37.2786
790
root 0.815311 17.6493 9.27593 28.2102 2.84677 -8.95552
lowerback 7.02428 0.715576 5.65446
upperback -7.35014 1.94681 2.40302
thorax -11.8243 0.582118 -0.891175
lowerneck -15.7307 -4.08612 -1.35134
upperneck -3.89168 -5.41545 11.509
head 1.91473 -2.36072 3.72477
rclavicle -4.91992e-015 3.79679e-014
rhumerus 55.8916 18.0646 -49.348
rradius 52.1472
rwrist 43.3721
rhand -27.6365 -53.8469
rfingers 7.12502
rthumb -1.03482 -83.8242
lclavicle -4.91992e-015 3.79679e-014
lhumerus 54.8311 -20.118 48.046
lradius 53.7332
lwrist -25.6844
lhand -49.8806 -34.9357
lfingers 7.12502
lthumb -22.4745 -6.22342
rfemur -26.7004 36.0144 10.2456
rtibia -2.12646
rfoot -16.1057 -38.5626
rtoes 21.4239
lfemur -23.7317 -49.8924 13.0009
ltibia -8.07773
lfoot -42.3965 52.6987
ltoes 36.9434
791
root 0.812834 17.6486 9.26412 28.302 3.02691 -8.97706
lowerback 7.15682 0.647763 5.72067
upperback -7.44261 1.88157 2.41731
thorax -12.0159 0.539759 -0.902724
lowerneck -16.0109 -4.06607 -1.1489
upperneck -3.67501 -5.44487 11.3539
head 2.02532 -2.36501 3.6269
rclavicle -1.74931e-014 -1.03368e-014
rhumerus 56.9829 17.3452 -51.0841
rradius 49.6451
rwrist 44.3143
rhand -26.6683 -53.7361
rfingers 7.12502
rthumb -0.0997017 -83.7158
lclavicle -1.74931e-014 -1.03368e-014
lhumerus 55.8673 -19.4601 49.5983
lradius 51.326
lwrist -26.3234
lhand -49.8707 -35.25
lfingers 7.12502
lthumb -22.465 -6.53658
rfemur -26.677 35.8708 10.3344
rtibia -2.29555
rfoot -16.3186 -38.466
rtoes 22.2849
lfemur -24.1243 -49.8597 13.3799
ltibia -8.00968
lfoot -42.0003 52.783
ltoes 36.6193
792
root 0.81164 17.647 9.25549 28.367 3.17892 -8.95795
lowerback 7.33611 0.572405 5.75357
upperback -7.55653 1.80749 2.43373
thorax -12.2631 0.494462 -0.891773
lowerneck -16.3456 -4.02863 -1.07045
upperneck -3.2415 -5.44234 11.6203
head 2.02877 -2.321 3.36338
rclavicle 1.33186e-014 1.07344e-014
rhumerus 57.9258 16.8215 -52.7787
rradius 47.3653
rwrist 44.7021
rhand -26.4856 -53.0752
rfingers 7.12502
rthumb 0.0767773 -83.055
lclavicle 1.33186e-014 1.07344e-014
lhumerus 56.7649 -18.9689 51.0076
lradius 49.1542
lwrist -26.8298
lhand -49.804 -35.4021
lfingers 7.12502
lthumb -22.401 -6.68097
rfemur -26.6234 35.7302 10.3813
rtibia -2.45937
rfoot -16.4895 -38.3757
rtoes 23.0423
lfemur -24.355 -49.8707 13.5943
ltibia -7.99187
lfoot -42.0259 52.6329
ltoes 36.738
793
root 0.811528 17.646 9.24759 28.4482 3.3641 -8.93689
lowerback 7.42702 0.491386 5.80778
upperback -7.64317 1.72081 2.46242
thorax -12.4256 0.44453 -0.875504
lowerneck -16.3337 -4.01279 -1.28244
upperneck -3.19812 -5.39837 11.9727
head 2.05851 -2.28425 3.50816
rclavicle -3.42904e-015 2.96189e-014
rhumerus 58.7757 16.389 -54.4212
rradius 45.3002
rwrist 44.6932
rhand -26.7631 -52.3249
rfingers 7.12502
rthumb -0.19133 -82.3046
lclavicle -3.42904e-015 2.96189e-014
lhumerus 57.4994 -18.596 52.0856
lradius 47.5138
lwrist -27.1874
lhand -49.7165 -35.4865
lfingers 7.12502
lthumb -22.317 -6.75528
rfemur -26.5918 35.5548 10.4291
rtibia -2.60339
rfoot -16.7649 -38.2551
rtoes 23.9717
lfemur -24.6228 -49.8873 13.8718
ltibia -8.03725
lfoot -41.9504 52.5471
ltoes 36.7437
794
root 0.810947 17.6471 9.23909 28.527 3.53846 -8.92596
lowerback 7.50231 0.419988 5.8506
upperback -7.6999 1.64305 2.49462
thorax -12.5438 0.401625 -0.850334
lowerneck -16.3125 -4.01966 -1.4245
upperneck -3.20918 -5.39022 12.2694
head 2.06838 -2.27036 3.62279
rclavicle -1.11319e-014 -2.00773e-014
rhumerus 59.4015 16.0039 -56.0252
rradius 43.6721
rwrist 44.8974
rhand -27.0353 -51.8476
rfingers 7.12502
rthumb -0.454217 -81.8268
lclavicle -1.11319e-014 -2.00773e-014
lhumerus 58.071 -18.3386 52.807
lradius 46.3969
lwrist -27.4242
lhand -49.5432 -35.6823
lfingers 7.12502
lthumb -22.1507 -6.93133
rfemur -26.6586 35.3973 10.4736
rtibia -2.62592
rfoot -16.7742 -38.2311
rtoes 24.1155
lfemur -24.9159 -49.8785 14.1753
ltibia -8.08495
lfoot -41.7541 52.5529
ltoes 36.6424
795
root 0.810204 17.6486 9.23146 28.5988 3.63197 -8.91346
lowerback 7.56281 0.372662 5.85374
upperback -7.71404 1.58767 2.5171
thorax -12.602 0.374508 -0.817873
lowerneck -16.4052 -4.04193 -1.444
upperneck -3.20097 -5.42206 12.3615
head 2.09172 -2.27957 3.65079
rclavicle -3.8763e-015 -5.68524e-014
rhumerus 59.8356 15.6976 -57.2686
rradius 42.592
rwrist 45.1722
rhand -27.3316 -51.433
rfingers 7.12502
rthumb -0.740365 -81.4115
lclavicle -3.8763e-015 -5.68524e-014
lhumerus 58.6046 -18.1739 53.1264
lradius 45.5875
lwrist -27.5729
lhand -49.4254 -35.5292
lfingers 7.12502
lthumb -22.0375 -6.76484
rfemur -26.749 35.2963 10.4535
rtibia -2.65071
rfoot -16.6661 -38.2325
rtoes 24.0767
lfemur -25.0884 -49.839 14.3392
ltibia -8.12922
lfoot -41.7269 52.4898
ltoes 36.7193
796
root 0.809943 17.6491 9.22476 28.6867 3.66659 -8.91508
lowerback 7.60643 0.348523 5.85959
upperback -7.70771 1.56129 2.53798
thorax -12.624 0.362078 -0.793941
lowerneck -16.5894 -4.08092 -1.4559
upperneck -3.12053 -5.48328 12.3497
head 2.14791 -2.3008 3.64207
rclavicle -3.13086e-015 -1.31198e-014
rhumerus 60.1671 15.4871 -58.0997
rradius 41.8767
rwrist 45.3929
rhand -27.7598 -50.9108
rfingers 7.12502
rthumb -1.15396 -80.8875
lclavicle -3.13086e-015 -1.31198e-014
lhumerus 59.1066 -18.0676 53.1794
lradius 44.9315
lwrist -27.8071
lhand -49.441 -35.3099
lfingers 7.12502
lthumb -22.0524 -6.54727
rfemur -26.8631 35.2423 10.3911
rtibia -2.71739
rfoot -16.4974 -38.2842
rtoes 24.0646
lfemur -25.1495 -49.7601 14.4201
ltibia -8.22484
lfoot -41.8531 52.3435
ltoes 36.9832
797
root 0.809557 17.6498 9.21719 28.7582 3.69054 -8.94008
lowerback 7.68098 0.340592 5.9065
upperback -7.67999 1.56211 2.54236
thorax -12.6377 0.35841 -0.816433
lowerneck -16.7883 -4.12199 -1.45522
upperneck -3.06315 -5.54677 12.3263
head 2.19864 -2.32407 3.62758
rclavicle 1.0138e-014 1.96797e-014
rhumerus 60.4446 15.329 -58.6215
rradius 41.4597
rwrist 45.8143
rhand -27.4257 -50.501
rfingers 7.12502
rthumb -0.831274 -80.4792
lclavicle 1.0138e-014 1.96797e-014
lhumerus 59.6177 -18.0205 53.0066
lradius 44.3366
lwrist -28.1588
lhand -49.4768 -35.4456
lfingers 7.12502
lthumb -22.0869 -6.68698
rfemur -26.9712 35.2189 10.3644
rtibia -2.76329
rfoot -16.2832 -38.3553
rtoes 23.9483
lfemur -25.131 -49.6726 14.4812
ltibia -8.36983
lfoot -42.2316 52.0536
ltoes 37.5962
798
root 0.808715 17.6523 9.21006 28.7976 3.70373 -8.94695
lowerback 7.77505 0.328515 5.94328
upperback -7.64089 1.55406 2.52151
thorax -12.6499 0.350103 -0.859622
lowerneck -16.8498 -4.13741 -1.47242
upperneck -3.1655 -5.55695 12.3934
head 2.1813 -2.32894 3.65044
rclavicle -6.01324e-015 4.57205e-015
rhumerus 60.6748 15.2463 -58.9616
rradius 41.2037
rwrist 45.8927
rhand -26.5765 -50.1265
rfingers 7.12502
rthumb -0.0110711 -80.1062
lclavicle -6.01324e-015 4.57205e-015
lhumerus 60.0495 -18.0048 52.7105
lradius 43.7842
lwrist -28.6617
lhand -49.7495 -35.6915
lfingers 7.12502
lthumb -22.3487 -6.96413
rfemur -27.0432 35.2146 10.3563
rtibia -2.76948
rfoot -16.087 -38.392
rtoes 23.9297
lfemur -25.0507 -49.6093 14.4748
ltibia -8.51609
lfoot -42.7101 51.6957
ltoes 38.332
799
root 0.80826 17.6564 9.20406 28.8365 3.6921 -8.92168
lowerback 7.84892 0.310667 5.91846
upperback -7.60428 1.53025 2.52034
thorax -12.6547 0.341181 -0.843852
lowerneck -16.9815 -4.13724 -1.58969
upperneck -3.13637 -5.54498 12.5359
head 2.21905 -2.31146 3.71259
rclavicle 1.00386e-014 -2.78299e-014
rhumerus 60.8747 15.2566 -59.1514
rradius 40.9301
rwrist 45.3043
rhand -25.9683 -49.8034
rfingers 7.12502
rthumb 0.576355 -79.7823
lclavicle 1.00386e-014 -2.78299e-014
lhumerus 60.3199 -17.9296 52.5827
lradius 43.2685
lwrist -29.2748
lhand -50.2897 -35.6154
lfingers 7.12502
lthumb -22.8671 -6.95119
rfemur -27.1111 35.214 10.3035
rtibia -2.78243
rfoot -15.9351 -38.4311
rtoes 23.9775
lfemur -24.917 -49.5531 14.3956
ltibia -8.68852
lfoot -43.1141 51.3637
ltoes 38.8779
800
root 0.809015 17.6621 9.19702 28.8869 3.67633 -8.8679
lowerback 7.87908 0.312726 5.84843
upperback -7.51286 1.52459 2.55894
thorax -12.569 0.350263 -0.76314
lowerneck -17.3846 -4.14667 -1.76364
upperneck -2.93564 -5.55377 12.6125
head 2.34967 -2.28944 3.75837
rclavicle 9.44227e-016 -1.74931e-014
rhumerus 61.1309 15.1906 -59.1915
rradius 40.6285
rwrist 44.9309
rhand -25.9512 -49.6837
rfingers 7.12502
rthumb 0.592839 -79.6626
lclavicle 9.44227e-016 -1.74931e-014
lhumerus 60.5904 -17.7133 52.7848
lradius 42.854
lwrist -29.5623
lhand -50.2092 -35.2491
lfingers 7.12502
lthumb -22.7899 -6.57532
rfemur -27.2069 35.1851 10.1917
rtibia -2.79909
rfoot -15.6606 -38.5061
rtoes 23.6949
lfemur -24.8294 -49.4972 14.3123
ltibia -8.82575
lfoot -43.6183 50.9249
ltoes 39.4638
801
root 0.810512 17.668 9.18869 28.9604 3.67231 -8.78925
lowerback 7.87156 0.321975 5.77977
upperback -7.40458 1.52415 2.59322
thorax -12.4401 0.362585 -0.688883
lowerneck -17.7502 -4.16589 -1.8785
upperneck -2.87768 -5.56666 12.5992
head 2.42585 -2.2805 3.76833
rclavicle 9.14409e-015 -3.67752e-014
rhumerus 61.3873 15.0676 -59.1584
rradius 40.3654
rwrist 44.7921
rhand -26.5812 -49.557
rfingers 7.12502
rthumb -0.0156309 -79.5367
lclavicle 9.14409e-015 -3.67752e-014
lhumerus 60.8406 -17.4586 53.102
lradius 42.5812
lwrist -29.2786
lhand -49.4575 -34.9542
lfingers 7.12502
lthumb -22.0683 -6.19348
rfemur -27.3368 35.1208 10.0364
rtibia -2.82163
rfoot -15.2674 -38.5969
rtoes 23.321
lfemur -24.9249 -49.4283 14.3016
ltibia -8.84096
lfoot -43.9665 50.5678
ltoes 39.9004
